<?xml version="1.0" encoding="utf-8"?>
<!-- Generator: Adobe Illustrator 23.0.3, SVG Export Plug-In . SVG Version: 6.00 Build 0)  -->
<svg version="1.1" xmlns="http://www.w3.org/2000/svg" xmlns:xlink="http://www.w3.org/1999/xlink" x="0px" y="0px"
	 viewBox="0 0 120 120" style="enable-background:new 0 0 120 120;" xml:space="preserve">
<style type="text/css">
	.st0{fill:none;}
	.st1{fill:#7A6262;}
	.st2{fill:#47270C;}
	.st3{fill:#683815;}
</style>
<g id="Layer_1">
	<g>
		<rect class="st0" width="120" height="120"/>
	</g>
</g>
<g id="Layer_2">
	<g>
		<path class="st1" d="M64.437,92.656c-1.136-2.124-2.532-4.16-4.305-5.883c-1.768-1.722-3.903-3.105-6.22-4.014
			c-2.328-0.879-4.796-1.314-7.231-1.395c-2.438-0.082-4.852,0.123-7.207,0.483c-2.36,0.349-4.668,0.845-6.94,1.312
			c-1.134,0.232-2.259,0.455-3.363,0.628c-1.1,0.17-2.195,0.296-3.162,0.24c-0.97-0.059-1.854-0.286-2.467-0.739
			c-0.619-0.442-1.05-1.097-1.291-1.969c-0.491-1.717-0.238-4.031,0.296-5.93l0.308-1.095l-0.92-0.777l-0.452-0.382
			c-0.11-0.134-0.255-0.26-0.349-0.39c-0.201-0.258-0.306-0.498-0.366-0.711c-0.05-0.212-0.034-0.421,0.037-0.67
			c0.041-0.123,0.093-0.253,0.167-0.381c0.036-0.065,0.074-0.127,0.116-0.186c0.029-0.047,0.109-0.139,0.078-0.107l1.134-1.068
			c-0.48-0.235-2.692-2.216-2.829-2.456c-0.169-0.229-0.219-0.369-0.175-0.756c0.052-0.374,0.265-0.89,0.587-1.388
			c0.303-0.487,0.75-1.033,1.123-1.408l1.713-1.719l-2.167-1.089l-1.099-0.552l-1.062-0.6c-0.687-0.424-1.368-0.858-1.984-1.35
			c-0.622-0.484-1.213-1-1.719-1.557c-0.163-0.183-0.319-0.368-0.467-0.555c0.797-0.665,1.499-1.345,2.202-2.038
			c1.051-1.059,2.059-2.137,3.041-3.229c1.962-2.191,3.841-4.408,5.69-6.698l0.001-0.002L25.71,43.5l-0.244-0.834
			c-0.689-2.351-1.178-4.791-1.395-7.29c-0.19-2.499-0.229-5.031-0.053-7.567c0.177-2.534,0.497-5.069,0.957-7.585
			c0.465-2.505,1.052-5.033,1.8-7.433l0.011-0.036c0.15-0.483-0.104-1.004-0.585-1.18c-0.496-0.182-1.046,0.073-1.228,0.569
			c-0.924,2.52-1.636,5.032-2.249,7.608c-0.603,2.57-1.065,5.177-1.381,7.815c-0.314,2.639-0.41,5.313-0.337,8.001
			c0.089,2.376,0.417,4.757,0.936,7.121c-1.635,2.007-3.323,4.001-5.048,5.926c-0.954,1.062-1.926,2.1-2.915,3.096
			c-0.978,0.981-2.034,1.967-2.99,2.618l-1.181,0.806l0.502,1.252c0.105,0.261,0.154,0.344,0.228,0.49l0.208,0.371
			c0.142,0.23,0.287,0.454,0.439,0.661c0.3,0.424,0.624,0.804,0.956,1.174c0.668,0.732,1.395,1.365,2.146,1.95
			c0.748,0.593,1.538,1.099,2.333,1.588l0.519,0.293c-0.06,0.088-0.12,0.173-0.179,0.265c-0.471,0.752-0.904,1.611-1.08,2.707
			c-0.077,0.546-0.096,1.151,0.065,1.767c0.05,0.311,0.18,0.597,0.322,0.88l0.217,0.419c0.084,0.124,0.18,0.234,0.273,0.35
			c0.256,0.344,0.538,0.593,0.83,0.818c-0.027,0.074-0.058,0.145-0.082,0.221c-0.233,0.75-0.299,1.622-0.111,2.433
			c0.188,0.806,0.565,1.516,1.008,2.085c0.183,0.241,0.382,0.443,0.581,0.652c-0.181,0.913-0.284,1.793-0.329,2.736
			c-0.052,1.295,0.036,2.649,0.461,4.023c0.4,1.361,1.303,2.78,2.625,3.647c1.314,0.888,2.805,1.158,4.145,1.206
			c1.365,0.036,2.593-0.157,3.786-0.368c1.192-0.218,2.346-0.479,3.488-0.743c2.278-0.529,4.515-1.068,6.756-1.458
			c4.455-0.798,9.04-1.013,13.164,0.442c2.039,0.745,3.919,1.89,5.529,3.376c1.613,1.487,2.937,3.305,4.046,5.255l0.006,0.01
			c0.272,0.477,0.876,0.653,1.363,0.393C64.515,93.767,64.702,93.151,64.437,92.656z"/>
		<path class="st1" d="M19.091,66.146c0,0,0.936,2.304,4.211,3.491c0,0-2.376,0.108-2.628,2.52l-2.268-3.06l-0.324-2.34
			L19.091,66.146z"/>
		<g>
			<path class="st2" d="M30.284,7.545c3.04,10.833,8.387,20.842,15.795,28.407c3.688,3.799,7.861,7.059,12.509,9.529l3.965,2.325
				l2.035,1.438c0.688,0.466,1.292,1.053,1.939,1.579c2.502,2.212,4.696,4.796,6.47,7.634c3.501,5.731,5.151,12.354,5.225,18.811
				c-0.029,6.463-1.439,12.822-4.182,18.5c-1.354,2.843-2.972,5.548-4.886,8.019c-1.924,2.461-4.078,4.722-6.439,6.718
				c-2.386,1.971-4.973,3.663-7.684,5.056c-2.723,1.379-5.587,2.403-8.486,3.135c-0.781,0.197-1.574-0.276-1.772-1.057
				c-0.168-0.665,0.15-1.338,0.73-1.646l0.054-0.028c2.478-1.315,4.844-2.731,7.029-4.364c2.154-1.679,4.153-3.493,5.962-5.465
				c1.768-2.013,3.359-4.146,4.731-6.401c1.379-2.252,2.475-4.653,3.395-7.089c0.905-2.445,1.584-4.961,1.956-7.507
				c0.395-2.539,0.554-5.095,0.419-7.615c-0.292-5.029-1.704-9.886-4.264-13.968c-1.287-2.036-2.864-3.867-4.668-5.464
				c-0.467-0.383-0.879-0.828-1.384-1.17l-1.469-1.081c-1.067-0.647-1.984-1.208-3.43-2.124
				c-5.422-3.115-10.188-7.381-14.088-12.206c-3.889-4.854-6.854-10.345-8.834-16.076c-0.509-1.428-0.894-2.897-1.3-4.345
				c-0.334-1.474-0.689-2.931-0.906-4.419c-0.466-2.975-0.744-5.918-0.577-8.978c0.033-0.599,0.545-1.059,1.144-1.026
				c0.476,0.026,0.865,0.355,0.987,0.79L30.284,7.545z"/>
		</g>
		<g>
			<path class="st3" d="M33.659,3.665c8.046,6.177,16.878,11.462,26.055,15.085c2.3,0.903,4.628,1.701,6.979,2.375l1.883,0.564
				c0.673,0.197,1.344,0.404,2.005,0.636c1.331,0.441,2.647,0.928,3.941,1.472c5.181,2.149,10.103,5.072,14.478,8.839
				c4.37,3.744,8.083,8.581,10.311,14.147c1.113,2.779,1.78,5.735,2.055,8.682c0.169,1.478,0.147,2.95,0.132,4.417
				c-0.028,0.731-0.12,1.454-0.181,2.179l-0.108,1.084l-0.185,1.066c-0.961,5.698-3.111,10.944-5.874,15.652
				c-2.745,4.73-6.044,9.008-9.667,12.912c-0.602,0.649-1.616,0.686-2.265,0.084c-0.569-0.528-0.668-1.374-0.277-2.011l0.011-0.017
				c2.703-4.412,5.204-8.883,7.164-13.492c0.537-1.134,0.876-2.334,1.35-3.477c0.427-1.159,0.752-2.341,1.123-3.504
				c0.577-2.358,1.093-4.717,1.24-7.057c0.421-4.683-0.317-9.24-2.148-13.315c-1.878-4.057-4.779-7.677-8.401-10.653
				c-3.601-2.994-7.786-5.448-12.23-7.357c-1.113-0.472-2.229-0.946-3.37-1.352c-0.566-0.218-1.139-0.412-1.715-0.598l-0.865-0.29
				l-0.984-0.346c-2.637-0.884-5.21-1.923-7.694-3.121c-4.973-2.387-9.615-5.338-13.874-8.706
				c-4.237-3.428-8.13-7.117-11.437-11.549c-0.575-0.77-0.416-1.86,0.354-2.435c0.638-0.476,1.497-0.449,2.099,0.013L33.659,3.665z"
				/>
		</g>
		<g>
			<path class="st2" d="M39.165,1.231c6.828,1.351,13.712,2.585,20.53,3.501c3.417,0.432,6.822,0.872,10.23,1.11
				c1.7,0.189,3.403,0.212,5.1,0.348l2.545,0.085L78.85,6.32l1.407,0.076c3.736,0.114,7.548,0.691,11.289,1.758
				c3.736,1.063,7.439,2.784,10.614,5.319c3.181,2.525,5.664,5.892,7.235,9.472c1.552,3.606,2.294,7.375,2.386,11.063
				c0.022,0.898-0.687,1.644-1.585,1.666c-0.735,0.018-1.368-0.454-1.586-1.119l-0.006-0.021c-1.068-3.268-2.332-6.367-4.097-9.004
				c-1.719-2.662-3.91-4.818-6.446-6.442c-2.528-1.646-5.442-2.726-8.518-3.46c-3.086-0.7-6.311-1.142-9.633-1.221l-5.35-0.249
				c-1.82-0.162-3.648-0.291-5.453-0.544c-3.622-0.448-7.194-1.139-10.719-1.984c-3.53-0.824-6.984-1.925-10.389-3.123
				c-3.394-1.271-6.713-2.61-9.941-4.401c-0.751-0.417-1.023-1.364-0.606-2.115c0.336-0.605,1.016-0.899,1.66-0.772L39.165,1.231z"
				/>
		</g>
		<path class="st1" d="M64.437,92.656c-1.136-2.124-2.532-4.16-4.305-5.883c-1.768-1.722-3.903-3.105-6.22-4.014
			c-2.328-0.879-4.796-1.314-7.231-1.395c-2.438-0.082-4.852,0.123-7.207,0.483c-2.36,0.349-4.668,0.845-6.94,1.312
			c-1.134,0.232-2.259,0.455-3.363,0.628c-1.1,0.17-2.195,0.296-3.162,0.24c-0.97-0.059-1.854-0.286-2.467-0.739
			c-0.619-0.442-1.05-1.097-1.291-1.969c-0.491-1.717-0.238-4.031,0.296-5.93l0.308-1.095l-0.92-0.777l-0.452-0.382
			c-0.11-0.134-0.255-0.26-0.349-0.39c-0.201-0.258-0.306-0.498-0.366-0.711c-0.05-0.212-0.034-0.421,0.037-0.67
			c0.041-0.123,0.093-0.253,0.167-0.381c0.036-0.065,0.074-0.127,0.116-0.186c0.029-0.047,0.109-0.139,0.078-0.107l1.134-1.068
			c-0.48-0.235-2.692-2.216-2.829-2.456c-0.169-0.229-0.219-0.369-0.175-0.756c0.052-0.374,0.265-0.89,0.587-1.388
			c0.303-0.487,0.75-1.033,1.123-1.408l1.713-1.719l-2.167-1.089l-1.099-0.552l-1.062-0.6c-0.687-0.424-1.368-0.858-1.984-1.35
			c-0.622-0.484-1.213-1-1.719-1.557c-0.163-0.183-0.319-0.368-0.467-0.555c0.797-0.665,1.499-1.345,2.202-2.038
			c1.051-1.059,2.059-2.137,3.041-3.229c1.962-2.191,3.841-4.408,5.69-6.698l0.001-0.002L25.71,43.5l-0.244-0.834
			c-0.689-2.351-1.178-4.791-1.395-7.29c-0.19-2.499-0.229-5.031-0.053-7.567c0.177-2.534,0.497-5.069,0.957-7.585
			c0.465-2.505,1.052-5.033,1.8-7.433l0.011-0.036c0.15-0.483-0.104-1.004-0.585-1.18c-0.496-0.182-1.046,0.073-1.228,0.569
			c-0.924,2.52-1.636,5.032-2.249,7.608c-0.603,2.57-1.065,5.177-1.381,7.815c-0.314,2.639-0.41,5.313-0.337,8.001
			c0.089,2.376,0.417,4.757,0.936,7.121c-1.635,2.007-3.323,4.001-5.048,5.926c-0.954,1.062-1.926,2.1-2.915,3.096
			c-0.978,0.981-2.034,1.967-2.99,2.618l-1.181,0.806l0.502,1.252c0.105,0.261,0.154,0.344,0.228,0.49l0.208,0.371
			c0.142,0.23,0.287,0.454,0.439,0.661c0.3,0.424,0.624,0.804,0.956,1.174c0.668,0.732,1.395,1.365,2.146,1.95
			c0.748,0.593,1.538,1.099,2.333,1.588l0.519,0.293c-0.06,0.088-0.12,0.173-0.179,0.265c-0.471,0.752-0.904,1.611-1.08,2.707
			c-0.077,0.546-0.096,1.151,0.065,1.767c0.05,0.311,0.18,0.597,0.322,0.88l0.217,0.419c0.084,0.124,0.18,0.234,0.273,0.35
			c0.256,0.344,0.538,0.593,0.83,0.818c-0.027,0.074-0.058,0.145-0.082,0.221c-0.233,0.75-0.299,1.622-0.111,2.433
			c0.188,0.806,0.565,1.516,1.008,2.085c0.183,0.241,0.382,0.443,0.581,0.652c-0.181,0.913-0.284,1.793-0.329,2.736
			c-0.052,1.295,0.036,2.649,0.461,4.023c0.4,1.361,1.303,2.78,2.625,3.647c1.314,0.888,2.805,1.158,4.145,1.206
			c1.365,0.036,2.593-0.157,3.786-0.368c1.192-0.218,2.346-0.479,3.488-0.743c2.278-0.529,4.515-1.068,6.756-1.458
			c4.455-0.798,9.04-1.013,13.164,0.442c2.039,0.745,3.919,1.89,5.529,3.376c1.613,1.487,2.937,3.305,4.046,5.255l0.006,0.01
			c0.272,0.477,0.876,0.653,1.363,0.393C64.515,93.767,64.702,93.151,64.437,92.656z"/>
		<path class="st1" d="M19.091,66.146c0,0,0.936,2.304,4.211,3.491c0,0-2.376,0.108-2.628,2.52l-2.268-3.06l-0.324-2.34
			L19.091,66.146z"/>
		<g>
			<path class="st2" d="M30.284,7.545c3.04,10.833,8.387,20.842,15.795,28.407c3.688,3.799,7.861,7.059,12.509,9.529l3.965,2.325
				l2.035,1.438c0.688,0.466,1.292,1.053,1.939,1.579c2.502,2.212,4.696,4.796,6.47,7.634c3.501,5.731,5.151,12.354,5.225,18.811
				c-0.029,6.463-1.439,12.822-4.182,18.5c-1.354,2.843-2.972,5.548-4.886,8.019c-1.924,2.461-4.078,4.722-6.439,6.718
				c-2.386,1.971-4.973,3.663-7.684,5.056c-2.723,1.379-5.587,2.403-8.486,3.135c-0.781,0.197-1.574-0.276-1.772-1.057
				c-0.168-0.665,0.15-1.338,0.73-1.646l0.054-0.028c2.478-1.315,4.844-2.731,7.029-4.364c2.154-1.679,4.153-3.493,5.962-5.465
				c1.768-2.013,3.359-4.146,4.731-6.401c1.379-2.252,2.475-4.653,3.395-7.089c0.905-2.445,1.584-4.961,1.956-7.507
				c0.395-2.539,0.554-5.095,0.419-7.615c-0.292-5.029-1.704-9.886-4.264-13.968c-1.287-2.036-2.864-3.867-4.668-5.464
				c-0.467-0.383-0.879-0.828-1.384-1.17l-1.469-1.081c-1.067-0.647-1.984-1.208-3.43-2.124
				c-5.422-3.115-10.188-7.381-14.088-12.206c-3.889-4.854-6.854-10.345-8.834-16.076c-0.509-1.428-0.894-2.897-1.3-4.345
				c-0.334-1.474-0.689-2.931-0.906-4.419c-0.466-2.975-0.744-5.918-0.577-8.978c0.033-0.599,0.545-1.059,1.144-1.026
				c0.476,0.026,0.865,0.355,0.987,0.79L30.284,7.545z"/>
		</g>
		<g>
			<path class="st3" d="M33.659,3.665c8.046,6.177,16.878,11.462,26.055,15.085c2.3,0.903,4.628,1.701,6.979,2.375l1.883,0.564
				c0.673,0.197,1.344,0.404,2.005,0.636c1.331,0.441,2.647,0.928,3.941,1.472c5.181,2.149,10.103,5.072,14.478,8.839
				c4.37,3.744,8.083,8.581,10.311,14.147c1.113,2.779,1.78,5.735,2.055,8.682c0.169,1.478,0.147,2.95,0.132,4.417
				c-0.028,0.731-0.12,1.454-0.181,2.179l-0.108,1.084l-0.185,1.066c-0.961,5.698-3.111,10.944-5.874,15.652
				c-2.745,4.73-6.044,9.008-9.667,12.912c-0.602,0.649-1.616,0.686-2.265,0.084c-0.569-0.528-0.668-1.374-0.277-2.011l0.011-0.017
				c2.703-4.412,5.204-8.883,7.164-13.492c0.537-1.134,0.876-2.334,1.35-3.477c0.427-1.159,0.752-2.341,1.123-3.504
				c0.577-2.358,1.093-4.717,1.24-7.057c0.421-4.683-0.317-9.24-2.148-13.315c-1.878-4.057-4.779-7.677-8.401-10.653
				c-3.601-2.994-7.786-5.448-12.23-7.357c-1.113-0.472-2.229-0.946-3.37-1.352c-0.566-0.218-1.139-0.412-1.715-0.598l-0.865-0.29
				l-0.984-0.346c-2.637-0.884-5.21-1.923-7.694-3.121c-4.973-2.387-9.615-5.338-13.874-8.706
				c-4.237-3.428-8.13-7.117-11.437-11.549c-0.575-0.77-0.416-1.86,0.354-2.435c0.638-0.476,1.497-0.449,2.099,0.013L33.659,3.665z"
				/>
		</g>
		<g>
			<path class="st2" d="M39.165,1.231c6.828,1.351,13.712,2.585,20.53,3.501c3.417,0.432,6.822,0.872,10.23,1.11
				c1.7,0.189,3.403,0.212,5.1,0.348l2.545,0.085L78.85,6.32l1.407,0.076c3.736,0.114,7.548,0.691,11.289,1.758
				c3.736,1.063,7.439,2.784,10.614,5.319c3.181,2.525,5.664,5.892,7.235,9.472c1.552,3.606,2.294,7.375,2.386,11.063
				c0.022,0.898-0.687,1.644-1.585,1.666c-0.735,0.018-1.368-0.454-1.586-1.119l-0.006-0.021c-1.068-3.268-2.332-6.367-4.097-9.004
				c-1.719-2.662-3.91-4.818-6.446-6.442c-2.528-1.646-5.442-2.726-8.518-3.46c-3.086-0.7-6.311-1.142-9.633-1.221l-5.35-0.249
				c-1.82-0.162-3.648-0.291-5.453-0.544c-3.622-0.448-7.194-1.139-10.719-1.984c-3.53-0.824-6.984-1.925-10.389-3.123
				c-3.394-1.271-6.713-2.61-9.941-4.401c-0.751-0.417-1.023-1.364-0.606-2.115c0.336-0.605,1.016-0.899,1.66-0.772L39.165,1.231z"
				/>
		</g>
	</g>
</g>
</svg>
